<svg width="110" height="112" viewBox="0 0 110 112" fill="none" xmlns="http://www.w3.org/2000/svg">
<rect width="116" height="113" transform="translate(0 -1)" fill="white"/>
<mask id="mask0_3248_4" style="mask-type:luminance" maskUnits="userSpaceOnUse" x="15" y="59" width="86" height="36">
<path d="M15.7461 59.1124H100.254V94.7239H15.7461V59.1124Z" fill="white"/>
</mask>
<g mask="url(#mask0_3248_4)">
<path d="M92.7714 59.1055C92.4413 59.1124 92.1112 59.1401 91.7811 59.1919C90.9043 59.3303 90.0418 59.6345 89.2467 60.1186L69.0746 72.1378C68.6096 71.8923 68.0416 71.6226 67.2891 71.2699C66.423 70.8688 65.5179 70.4573 65.0103 70.236C62.263 69.0327 53.5133 65.5404 46.8685 62.7223C44.0289 61.5156 40.9905 60.9001 37.9521 60.8724C34.9101 60.8448 31.8646 61.4049 29.0001 62.5598L17.2866 67.2796C17.0594 67.3661 16.8571 67.4906 16.6796 67.6565C16.5056 67.8191 16.3708 68.0127 16.2749 68.2305C16.1791 68.4484 16.1294 68.6731 16.1294 68.9117C16.1294 69.1468 16.1755 69.375 16.2714 69.5929C16.3637 69.8107 16.4985 70.0044 16.6725 70.1703C16.8464 70.3328 17.0487 70.4608 17.2759 70.5472C17.5031 70.6371 17.7373 70.6786 17.9823 70.6717C18.2272 70.6682 18.4615 70.6198 18.6851 70.523L30.3986 65.8032C35.2118 63.8634 40.632 63.9118 45.4097 65.9415C52.1148 68.7872 61.01 72.3418 63.5124 73.4379C63.9597 73.635 64.8683 74.0465 65.7131 74.4407C66.5544 74.8314 67.4418 75.2671 67.5163 75.3086C68.3256 75.765 68.8651 76.581 68.8651 77.563C68.8651 79.0395 67.6654 80.1978 66.1391 80.1978C65.9226 80.1978 65.7167 80.1736 65.5215 80.1287C65.5179 80.1287 65.5179 80.1287 65.5179 80.1287C65.4718 80.1183 64.0342 79.7276 62.2914 79.2331C60.5485 78.7386 58.3336 78.1024 56.1542 77.4766C51.7953 76.2214 47.5785 75.0008 47.5785 75.0008C47.3477 74.9351 47.1135 74.9144 46.8756 74.9351C46.6343 74.9593 46.4071 75.0285 46.1941 75.1391C45.9847 75.2498 45.8001 75.395 45.6475 75.5748C45.4949 75.7546 45.3848 75.9586 45.3174 76.1799C45.2464 76.4047 45.2251 76.6329 45.2499 76.8645C45.2748 77.0962 45.3422 77.314 45.4594 77.5181C45.573 77.7255 45.722 77.9019 45.9102 78.0471C46.0983 78.1958 46.3042 78.303 46.5349 78.3687C46.5349 78.3687 50.7553 79.5927 55.1177 80.8479C57.3007 81.4737 59.5192 82.11 61.2691 82.6079C63.0155 83.1058 64.13 83.4239 64.6767 83.5484C65.1488 83.659 65.6386 83.7144 66.1391 83.7144C69.6283 83.7144 72.4963 80.9378 72.4963 77.563C72.4963 76.5222 72.2159 75.5437 71.7367 74.6827L91.1706 63.1027C91.1741 63.0992 91.1812 63.0958 91.1883 63.0923C92.7075 62.1656 94.6633 62.5944 95.6217 64.0639C96.5552 65.492 96.1648 67.3246 94.7272 68.2858C94.7059 68.2997 94.6846 68.3135 94.6598 68.3308L66.0006 89.3332C64.0413 90.7682 61.4785 91.152 59.1642 90.3567L37.9982 83.1023C33.1034 81.1487 27.5022 81.8057 23.2356 84.8347L16.9032 89.3298C16.7009 89.4646 16.534 89.6306 16.4027 89.8311C16.2678 90.0317 16.1826 90.2495 16.1436 90.4846C16.101 90.7163 16.1081 90.9514 16.1649 91.1831C16.2217 91.4113 16.3246 91.6257 16.4702 91.8159C16.6157 92.0061 16.7932 92.1651 17.0061 92.2861C17.2156 92.4072 17.4427 92.4832 17.6876 92.5178C17.929 92.5489 18.1704 92.5351 18.4082 92.4729C18.646 92.4106 18.859 92.3069 19.0542 92.1617L25.3831 87.67C28.6345 85.3637 32.8833 84.8658 36.6103 86.3526C36.6387 86.363 36.6707 86.3734 36.6991 86.3837L57.9503 93.6692C61.4146 94.8587 65.2694 94.2813 68.1978 92.134V92.1375L96.8569 71.135L96.7895 71.18C99.7995 69.171 100.648 65.1808 98.6956 62.1898C97.3787 60.1705 95.0893 59.0744 92.7714 59.1055Z" fill="#5E6C00"/>
</g>
<path d="M38.7751 26.6024C39.2737 25.9224 39.5771 26.0762 39.6893 27.0557C39.7308 27.4241 39.8305 28.1527 39.9884 29.2415C40.1422 30.3344 40.3292 31.8118 40.5535 33.6777C40.7862 35.5154 40.969 36.9888 41.102 38.0978C41.2433 39.1988 41.3347 39.9193 41.3679 40.2512C41.6754 43.295 42.3319 45.1165 43.3292 45.7075C43.9026 46.1203 44.7502 46.2903 45.8721 46.2256C46.5577 46.2256 46.9608 46.6142 47.0854 47.3913C47.1935 48.2251 47.1187 49.0711 46.8527 49.9333C46.5868 50.7549 46.2585 51.2042 45.8721 51.2771C43.7114 51.4269 42.1159 50.9047 41.0854 49.7066C39.9967 48.4356 39.2654 46.2053 38.8915 43.0198C37.8153 45.0072 36.6976 46.2215 35.5341 46.6627C34.6906 46.9663 33.523 46.9865 32.0272 46.7275C30.4067 46.428 29.2723 46.011 28.6199 45.4808C27.8886 44.8898 27.577 44.2341 27.6892 43.5217C27.8097 42.6919 28.1753 41.676 28.7862 40.4779C29.4385 39.2069 29.9371 38.4014 30.282 38.0654C32.318 36.1549 34.7446 34.4711 37.5618 33.0139C37.4496 31.4718 37.3956 30.3263 37.3956 29.5815C37.3956 28.8286 37.566 28.2296 37.9109 27.7843L38.7751 26.6024ZM37.9607 36.4302C34.9565 37.264 32.8 38.5188 31.4953 40.2026C31.3374 40.4293 31.3997 40.6195 31.6781 40.7693C32.4427 41.1376 33.3444 41.3522 34.3873 41.4169C35.4261 41.4736 36.602 41.3683 37.9109 41.1093C38.0978 41.0688 38.3098 40.9312 38.5424 40.7045C38.4967 40.1136 38.4261 39.4578 38.3264 38.7454C38.235 38.0331 38.1145 37.264 37.9607 36.4302ZM34.1546 16.5479C34.2294 16.4306 34.3873 16.3941 34.62 16.4346C35.3845 16.6937 36.1034 17.0134 36.7807 17.3899C37.4538 17.7582 38.0978 18.2075 38.7086 18.7337C38.8624 18.8875 38.8832 19.0535 38.7751 19.2356L35.9995 23.51C35.9205 23.6314 35.7502 23.5909 35.4843 23.3966C35.3596 23.2914 35.0272 23.0809 34.487 22.7652C33.9552 22.4414 33.1906 22.0002 32.1934 21.4375L29.9995 24.7566C29.8873 24.9428 29.692 24.9186 29.4177 24.6919C29.2598 24.5866 28.8568 24.3276 28.2044 23.9147C27.5479 23.4938 26.6089 22.9271 25.3789 22.2147C25.221 22.1095 25.2044 22.0002 25.3291 21.8909L28.1546 17.7784C28.2294 17.6732 28.3873 17.6327 28.6199 17.6651C29.2723 17.8513 29.8873 18.1023 30.4648 18.4261C31.0382 18.7418 31.5784 19.1061 32.077 19.527L34.1546 16.5479Z" fill="#5E6C00"/>
<path d="M57.2904 46.2255C57.7558 46.3348 57.9885 46.8731 57.9885 47.8445C57.9096 50.1679 57.6769 51.3094 57.2904 51.277C55.1048 50.9775 53.2059 48.8241 51.5896 44.8169C51.199 43.9102 50.9497 43.9669 50.8417 44.9788C50.2184 49.1034 48.5646 51.2041 45.8721 51.277C45.6394 51.277 45.4317 51.0746 45.2405 50.6617C44.3098 48.0712 44.5217 46.5938 45.8721 46.2255C47.2225 45.8045 48.2405 45.1326 48.9303 44.2016C49.5037 43.3718 49.7779 42.3195 49.7447 41.0444L48.7641 15.5764C48.7641 15.0907 48.8347 14.775 48.9801 14.6211L50.6588 12.7106C51.0453 12.3018 51.2572 12.399 51.2904 13.0021C51.3652 13.9007 51.4566 14.9692 51.5563 16.2078C51.6561 17.4383 51.7225 18.8429 51.7558 20.4174C51.9552 26.1166 52.1464 30.5852 52.3375 33.8234C52.5245 37.0615 52.6948 39.0611 52.8527 39.8139C53.771 43.6349 55.2503 45.7721 57.2904 46.2255Z" fill="#5E6C00"/>
<path d="M87.4243 35.2482C88.5421 35.2482 89.9673 35.8715 91.6958 37.1101C93.3911 38.3082 94.1224 39.5468 93.8897 40.8178C93.657 42.0159 93.0421 43.5176 92.0448 45.3188C91.0351 47.0796 90.3205 48.1117 89.9008 48.4112C86.398 50.9289 81.7816 52.1837 76.0558 52.1837C74.934 52.1837 73.837 52.1068 72.765 51.957C71.6888 51.8032 70.6458 51.5927 69.6403 51.3256C69.3411 51.7465 68.8259 53.2847 68.0946 55.9399C67.9699 56.4985 67.5835 56.6685 66.9311 56.4418C66.3536 56.2233 66.0876 55.8145 66.1334 55.2114C66.2414 54.5394 66.4159 53.8109 66.6486 53.0256C66.8813 52.2363 67.1846 51.4106 67.5627 50.5484C65.5683 49.7186 63.9935 48.6298 62.8425 47.2779C62.4519 46.7922 62.1278 46.5493 61.8619 46.5493C61.6292 46.5493 61.3965 46.8165 61.1638 47.3427C60.0876 49.9656 58.7787 51.277 57.2413 51.277C57.0544 51.277 56.8424 51.0746 56.6098 50.6618C55.9906 49.237 55.8203 48.1846 56.0945 47.5046C56.3937 46.7598 56.776 46.3348 57.2413 46.2255C59.2441 45.7722 60.9186 44.3271 62.2608 41.8864C62.5267 41.4007 62.9297 41.1578 63.4741 41.1578C64.0475 41.1578 64.5087 41.4411 64.8536 41.9997C66.0835 43.8778 68.1195 45.2298 70.9699 46.0474C72.6652 44.2462 74.2816 42.6716 75.8232 41.3197C80.5517 37.3165 84.4201 35.2927 87.4243 35.2482ZM89.9673 43.7969C87.7734 41.854 85.3052 40.9959 82.5711 41.2226C81.4949 41.3318 79.8827 42.0604 77.7345 43.4083C76.6459 44.0802 75.74 44.6793 75.0087 45.2055C74.2774 45.7357 73.7206 46.2053 73.3467 46.6141C75.5738 46.95 78.686 46.8893 82.6875 46.436C86.7304 45.9948 89.1362 45.3026 89.9008 44.3636C90.1335 44.1814 90.1543 43.9912 89.9673 43.7969Z" fill="#5E6C00"/>
</svg>
